<!--?xml version="1.0" standalone="no"?-->
              <svg id="sw-js-blob-svg" viewBox="0 0 100 100" xmlns="http://www.w3.org/2000/svg" version="1.1">
                    <defs> 
                        <linearGradient id="sw-gradient" x1="0" x2="1" y1="1" y2="0">
                            <stop id="stop1" stop-color="rgba(214.089, 205.553, 205.553, 0.15)" offset="0%"></stop>
                            <stop id="stop2" stop-color="rgba(179.731, 182.214, 178.035, 0.15)" offset="100%"></stop>
                        </linearGradient>
                    </defs>
                <path fill="url(#sw-gradient)" d="M17.9,-31.2C24.7,-27.1,32.8,-25.3,36,-20.5C39.3,-15.7,37.7,-7.9,37.9,0.2C38.2,8.2,40.3,16.3,36.8,20.6C33.2,24.9,24,25.3,16.9,26.4C9.9,27.5,4.9,29.4,-1.1,31.2C-7.1,33.1,-14.2,34.9,-18.5,32.2C-22.9,29.6,-24.5,22.3,-27.4,16.2C-30.3,10.1,-34.5,5,-36.9,-1.4C-39.4,-7.8,-40,-15.6,-36.2,-20.3C-32.4,-24.9,-24.2,-26.3,-17.5,-30.5C-10.7,-34.7,-5.3,-41.7,0.1,-41.9C5.5,-42.1,11.1,-35.4,17.9,-31.2Z" width="100%" height="100%" transform="translate(50 50)" stroke-width="0" style="transition: all 0.3s ease 0s;"></path>
              </svg>