<?xml version="1.0" encoding="UTF-8" standalone="no" ?>
<!DOCTYPE svg PUBLIC "-//W3C//DTD SVG 1.1//EN" "http://www.w3.org/Graphics/SVG/1.1/DTD/svg11.dtd">
<svg xmlns="http://www.w3.org/2000/svg" xmlns:xlink="http://www.w3.org/1999/xlink" version="1.1" width="1080" height="1080" viewBox="0 0 1080 1080" xml:space="preserve">
<desc>Created with Fabric.js 5.2.4</desc>
<defs>
</defs>
<rect x="0" y="0" width="100%" height="100%" fill="transparent"></rect>
<g transform="matrix(1 0 0 1 540 540)" id="018c250b-2899-4db6-b307-144d67caa3b9"  >
<rect style="stroke: none; stroke-width: 1; stroke-dasharray: none; stroke-linecap: butt; stroke-dashoffset: 0; stroke-linejoin: miter; stroke-miterlimit: 4; fill: rgb(255,255,255); fill-rule: nonzero; opacity: 1; visibility: hidden;" vector-effect="non-scaling-stroke"  x="-540" y="-540" rx="0" ry="0" width="1080" height="1080" />
</g>
<g transform="matrix(1 0 0 1 540 540)" id="f15f49e8-e887-4e4b-934a-cbef4a770629"  >
</g>
<g transform="matrix(-0.68 0 0 -0.45 540 562.51)"  >
<g style=""   >
		<g transform="matrix(1 0 0 1 -2.7 -2.95)"  >
<path style="stroke: none; stroke-width: 1; stroke-dasharray: none; stroke-linecap: butt; stroke-dashoffset: 0; stroke-linejoin: miter; stroke-miterlimit: 4; fill: rgb(0,111,87); fill-rule: nonzero; opacity: 1;" vector-effect="non-scaling-stroke"  transform=" translate(-797.3, -97.05)" d="M 1615.6 58.4 C 1607 79.1 1596.3999999999999 89.8 1588.8 95.19999999999999 C 1584.3999999999999 87.6 1580.1 76.79999999999998 1577.8999999999999 61.79999999999999 C 1568.6999999999998 84.39999999999999 1556.9999999999998 95.19999999999999 1549.3 100.1 C 1546.8999999999999 92.39999999999999 1544.8999999999999 83.69999999999999 1543.3 73.89999999999999 C 1532.8999999999999 99.79999999999998 1520.5 116 1509.8999999999999 126.1 C 1507.1 119.6 1504.6999999999998 111.6 1503.1 101.69999999999999 C 1497.8999999999999 114.89999999999999 1491.8999999999999 124.1 1486.3 130.5 C 1482.3999999999999 125.4 1478.2 118.4 1474.3999999999999 109 C 1481.1999999999998 109.7 1487.9999999999998 110.4 1494.8 111.1 C 1494.8 111.1 1474.8 101.19999999999999 1468.2 61.8 C 1463.6000000000001 73.8 1458.2 82.5 1453 88.8 C 1444.9 76.7 1436.5 58.599999999999994 1431.9 32 C 1416.8000000000002 71.7 1396.5 89 1384.7 96.2 C 1380.9 89.10000000000001 1377.3 79.5 1375 67 C 1366.5 89.9 1355.2 101 1347.7 106.2 C 1339.2 94.3 1330.2 76.1 1325 48.7 C 1316.7 71.6 1306.7 87.1 1297.4 97.6 C 1292 90.19999999999999 1286.2 78.69999999999999 1282.9 61.49999999999999 C 1275.1000000000001 83.5 1264.7 94.69999999999999 1257.2 100.29999999999998 C 1254.5 96.19999999999999 1251.7 91.29999999999998 1249.2 85.39999999999998 C 1256 85.89999999999998 1262.8 86.39999999999998 1269.6000000000001 86.79999999999998 C 1269.6000000000001 86.79999999999998 1249.2 77.59999999999998 1241.3000000000002 38.399999999999984 C 1232.8000000000002 62.79999999999998 1220.9 74.1 1213.5000000000002 78.99999999999999 C 1204.5000000000002 67.29999999999998 1194.7000000000003 48.999999999999986 1188.8000000000002 20.999999999999986 C 1171.8000000000002 71.19999999999999 1145.6000000000001 86.89999999999999 1137.2000000000003 90.69999999999999 C 1129.9000000000003 79.19999999999999 1122.7000000000003 63.19999999999999 1117.8000000000002 41.19999999999999 C 1108.5000000000002 69.69999999999999 1096.1000000000001 87.19999999999999 1085.7000000000003 97.69999999999999 C 1081.2000000000003 90.6 1076.7000000000003 80.69999999999999 1073.6000000000004 67.19999999999999 C 1067.9000000000003 85.19999999999999 1060.2000000000003 96.19999999999999 1053.7000000000003 102.79999999999998 C 1044.9000000000003 91.29999999999998 1035.5000000000002 73.69999999999999 1029.4000000000003 47.499999999999986 C 1023.8000000000003 65.39999999999998 1017.0000000000003 78.99999999999999 1010.2000000000003 89.29999999999998 C 1003.4000000000003 83.69999999999999 992.6000000000003 71.29999999999998 986.5000000000002 46.09999999999998 C 981.7000000000003 61.89999999999998 975.3000000000002 72.39999999999998 969.4000000000002 79.29999999999998 C 960.1000000000003 73.59999999999998 937.1000000000003 55.19999999999998 924.8000000000002 6.59999999999998 C 916.0000000000002 36.29999999999998 903.7000000000002 54.29999999999998 893.3000000000002 65.09999999999998 C 889 58.6 885 49.8 882 38.2 C 871 76.7 850 84.2 850 84.2 C 856.8 84.3 863.6 84.3 870.4 84.4 C 861.9 100.2 852.8 108.30000000000001 847.1999999999999 112.10000000000001 C 840.0999999999999 104.60000000000001 832.1999999999999 94.10000000000001 824.6999999999999 79.5 C 835.4999999999999 79.5 846.4 79.6 857.1999999999999 79.7 C 857.1999999999999 79.7 823.9999999999999 67.2 807.3 5.700000000000003 C 800.0999999999999 31.900000000000002 789.9 49.1 780.5999999999999 60.300000000000004 C 776.4999999999999 53.7 772.3999999999999 45.10000000000001 769.3 33.7 C 767.0999999999999 42 764.4 48.900000000000006 761.5 54.6 C 752 43.5 741.6 26.3 734.1 0 C 722.5 44.1 702.2 63.1 691.7 70.4 C 685.4000000000001 63.60000000000001 678.2 52.50000000000001 673 34.800000000000004 C 667 58.5 657 70.80000000000001 650 76.7 C 642.1 65.9 634 50.800000000000004 627.7 29.800000000000004 C 621.9000000000001 53.400000000000006 613.6 69.9 605.5 81.4 C 602 75.5 598.6 68 595.8 58.800000000000004 C 587.5 93.6 570.0999999999999 104 566.5999999999999 105.80000000000001 C 566.3999999999999 105.80000000000001 566.1999999999999 105.80000000000001 565.9999999999999 105.80000000000001 C 559.1999999999999 95.60000000000001 552.4999999999999 82.10000000000001 546.8999999999999 64.50000000000001 C 543.4999999999999 79.30000000000001 538.9999999999999 91.4 534.1999999999998 101.10000000000002 C 526.8999999999999 95.90000000000002 515.5999999999998 84.30000000000003 507.79999999999984 60.10000000000002 C 505 72.7 501 82 496.8 89 C 488.90000000000003 78.4 480.8 63.8 474.2 43.7 C 469.5 65.2 462.5 80.9 455.4 92.30000000000001 C 448.5 85.9 440.09999999999997 74.80000000000001 433.79999999999995 55.90000000000001 C 428.09999999999997 82.70000000000002 416.69999999999993 95.30000000000001 410.09999999999997 100.60000000000002 C 399.59999999999997 90.20000000000002 387.29999999999995 73.00000000000003 377.7 45.200000000000024 C 373.8 64.40000000000002 368 79.10000000000002 361.9 90.20000000000002 C 355.29999999999995 83.70000000000002 347.5 73.00000000000001 341.4 55.70000000000002 C 339.2 67.00000000000001 335.9 75.70000000000002 332.4 82.50000000000001 C 320.5 74.10000000000001 302.5 56.30000000000001 289.29999999999995 19.400000000000013 C 277.19999999999993 82.00000000000001 245.09999999999997 96.9 244.99999999999994 97 C 255.79999999999995 96.1 266.69999999999993 95.2 277.49999999999994 94.3 C 268.49999999999994 115.5 258.09999999999997 128.8 249.99999999999994 136.8 C 244.19999999999993 130.3 237.89999999999995 120.60000000000001 232.69999999999993 106.4 C 231.89999999999992 110.7 230.99999999999994 114.7 229.89999999999992 118.4 C 222.69999999999993 114.4 209.19999999999993 103.7 199.29999999999993 77.30000000000001 C 192.39999999999992 116.70000000000002 172.29999999999993 126.30000000000001 172.29999999999993 126.30000000000001 C 179.09999999999994 125.60000000000001 185.79999999999993 125.00000000000001 192.59999999999994 124.4 C 191.69999999999993 126.5 190.79999999999993 128.5 189.89999999999995 130.4 C 177.99999999999994 131.5 166.09999999999994 132.70000000000002 154.19999999999993 133.9 C 147.19999999999993 130.20000000000002 133.09999999999994 119.80000000000001 122.59999999999994 92.9 C 118.09999999999994 120.2 107.19999999999993 133.3 100.89999999999993 138.8 C 94.99999999999993 132.4 88.59999999999994 123.00000000000001 83.19999999999993 109.10000000000001 C 81.69999999999993 118.9 79.29999999999993 126.80000000000001 76.59999999999994 133.3 C 66.7 123 55.2 107.3 45.5 83.1 C 43.3 97.6 39.9 109.6 36 119.5 C 28.5 113.8 18.5 103.2 10.3 83.2 C 9.3 90.4 7.8 96.6 6 101.9 C -4.5 91.9 -16.5 76.2 -26.799999999999997 51.50000000000001 C -27.199999999999996 54.00000000000001 -27.499999999999996 56.400000000000006 -27.999999999999996 58.70000000000001 C -20.699999999999996 116.60000000000001 -17.799999999999997 136.20000000000002 -10.499999999999996 194.10000000000002 L 1609 192.50000000000003 C 1615.2 143.20000000000005 1616.4 133.8 1622.6 84.50000000000003 C 1619.7 77.7 1617.1 69.1 1615.6 58.4 z" stroke-linecap="round" />
</g>
		<g transform="matrix(1 0 0 1 -729.75 39.8)"  >
<path style="stroke: none; stroke-width: 1; stroke-dasharray: none; stroke-linecap: butt; stroke-dashoffset: 0; stroke-linejoin: miter; stroke-miterlimit: 4; fill: rgb(54,154,126); fill-rule: nonzero; opacity: 1;" vector-effect="non-scaling-stroke"  transform=" translate(-70.25, -139.8)" d="M 85.8 155 C 90.89999999999999 154.4 95.89999999999999 153.9 101 153.3 C 101 153.3 87.4 149.70000000000002 73.7 129.3 C 79.60000000000001 128.60000000000002 85.4 128 91.30000000000001 127.4 C 91.30000000000001 127.4 72.50000000000001 122.7 59.70000000000001 90.4 C 54.40000000000001 124.80000000000001 37.10000000000001 133.5 37.10000000000001 133.5 C 43.00000000000001 132.8 48.80000000000001 132.1 54.70000000000001 131.5 C 46 154.4 33.5 161 33.5 161 C 38.6 160.4 43.6 159.8 48.7 159.2 C 37 182.2 23.300000000000004 189.2 23.200000000000003 189.2 L 117.3 178.6 C 117.3 178.6 102.4 174.9 85.8 155 z" stroke-linecap="round" />
</g>
		<g transform="matrix(1 0 0 1 -448.25 15.9)"  >
<path style="stroke: none; stroke-width: 1; stroke-dasharray: none; stroke-linecap: butt; stroke-dashoffset: 0; stroke-linejoin: miter; stroke-miterlimit: 4; fill: rgb(54,154,126); fill-rule: nonzero; opacity: 1;" vector-effect="non-scaling-stroke"  transform=" translate(-351.75, -115.9)" d="M 367.5 131.9 C 372.2 131.6 377 131.3 381.7 131 C 381.7 131 369.09999999999997 127.1 357.2 107.4 C 362.7 107 368.2 106.7 373.7 106.30000000000001 C 373.7 106.30000000000001 356.4 101.20000000000002 345.7 70.4 C 339.4 102.4 322.9 109.80000000000001 322.9 109.80000000000001 C 328.4 109.4 333.9 109.00000000000001 339.4 108.60000000000001 C 330.29999999999995 129.70000000000002 318.4 135.3 318.4 135.3 C 323.09999999999997 134.9 327.9 134.60000000000002 332.59999999999997 134.3 C 320.7 155.4 307.59999999999997 161.4 307.59999999999997 161.4 L 395.9 155.3 C 396 155.3 382.2 151.1 367.5 131.9 z" stroke-linecap="round" />
</g>
		<g transform="matrix(1 0 0 1 -108.6 -15.8)"  >
<path style="stroke: none; stroke-width: 1; stroke-dasharray: none; stroke-linecap: butt; stroke-dashoffset: 0; stroke-linejoin: miter; stroke-miterlimit: 4; fill: rgb(54,154,126); fill-rule: nonzero; opacity: 1;" vector-effect="non-scaling-stroke"  transform=" translate(-691.4, -84.2)" d="M 714.6 108.9 C 721.1 108.80000000000001 727.6 108.7 734.1 108.7 C 734.1 108.7 717.3000000000001 102.4 702.4 74.80000000000001 C 709.9 74.70000000000002 717.5 74.60000000000001 725 74.50000000000001 C 725 74.50000000000001 701.7 66.30000000000001 689.3 23.600000000000016 C 678.3 66.70000000000002 655.4 75.70000000000002 655.4 75.70000000000002 C 662.9 75.50000000000001 670.5 75.40000000000002 678 75.20000000000002 C 664.1 103.30000000000001 647.5 110.10000000000002 647.5 110.10000000000002 C 654 109.90000000000002 660.5 109.80000000000003 667 109.70000000000002 C 649.3 137.60000000000002 631.1 144.8 631.1 144.8 L 751.7 142.70000000000002 C 751.7 142.8 733.3 136.1 714.6 108.9 z" stroke-linecap="round" />
</g>
		<g transform="matrix(1 0 0 1 175.95 -7.25)"  >
<path style="stroke: none; stroke-width: 1; stroke-dasharray: none; stroke-linecap: butt; stroke-dashoffset: 0; stroke-linejoin: miter; stroke-miterlimit: 4; fill: rgb(54,154,126); fill-rule: nonzero; opacity: 1;" vector-effect="non-scaling-stroke"  transform=" translate(-975.95, -92.75)" d="M 997.7 115.2 C 1003.4000000000001 115.4 1009.2 115.5 1014.9000000000001 115.7 C 1014.9000000000001 115.7 1000.3000000000001 109.5 988.2 84.6 C 994.9000000000001 84.8 1001.5 85 1008.2 85.19999999999999 C 1008.2 85.19999999999999 988 76.99999999999999 978.7 38.89999999999999 C 967.4000000000001 76.5 946.8000000000001 83.6 946.8000000000001 83.6 C 953.5000000000001 83.69999999999999 960.1 83.89999999999999 966.8000000000001 84.1 C 953.4000000000001 108.39999999999999 938.5000000000001 113.69999999999999 938.5000000000001 113.8 C 944.2000000000002 113.89999999999999 950.0000000000001 114 955.7000000000002 114.2 C 939.0000000000001 138.1 922.7000000000002 143.8 922.7000000000002 143.8 L 1029.2000000000003 146.60000000000002 C 1029.2 146.5 1013.1 139.9 997.7 115.2 z" stroke-linecap="round" />
</g>
		<g transform="matrix(1 0 0 1 400.8 1.55)"  >
<path style="stroke: none; stroke-width: 1; stroke-dasharray: none; stroke-linecap: butt; stroke-dashoffset: 0; stroke-linejoin: miter; stroke-miterlimit: 4; fill: rgb(54,154,126); fill-rule: nonzero; opacity: 1;" vector-effect="non-scaling-stroke"  transform=" translate(-1200.8, -101.55)" d="M 1224.6 124.7 C 1230.5 125.10000000000001 1236.5 125.5 1242.3999999999999 125.9 C 1242.3999999999999 125.9 1227.3999999999999 119 1215.8 92.7 C 1222.7 93.10000000000001 1229.6 93.60000000000001 1236.5 94 C 1236.5 94 1215.8 84.8 1207.5 44.9 C 1194.4 83.5 1172.8 90.1 1172.8 90.1 C 1179.7 90.5 1186.6 90.89999999999999 1193.5 91.3 C 1178.8 116 1163.1 121 1163.1 121 C 1169 121.3 1175 121.7 1180.8999999999999 122 C 1162.8 146.2 1145.6 151.5 1145.6 151.5 L 1256 158.2 C 1256.1 158.3 1239.7 150.9 1224.6 124.7 z" stroke-linecap="round" />
</g>
		<g transform="matrix(1 0 0 1 540.5 28.5)"  >
<path style="stroke: none; stroke-width: 1; stroke-dasharray: none; stroke-linecap: butt; stroke-dashoffset: 0; stroke-linejoin: miter; stroke-miterlimit: 4; fill: rgb(54,154,126); fill-rule: nonzero; opacity: 1;" vector-effect="non-scaling-stroke"  transform=" translate(-1340.5, -128.5)" d="M 1357.2 144.3 C 1361.3 144.60000000000002 1365.4 145 1369.5 145.4 C 1369.5 145.4 1359.3 140.4 1351.6 122.10000000000001 C 1356.3999999999999 122.50000000000001 1361.1 122.9 1365.8999999999999 123.30000000000001 C 1365.8999999999999 123.30000000000001 1351.8 116.70000000000002 1346.6999999999998 89.00000000000001 C 1337.1 115.50000000000001 1322.1 119.70000000000002 1322.1 119.70000000000002 C 1326.8999999999999 120.10000000000002 1331.6 120.50000000000001 1336.3999999999999 120.80000000000001 C 1325.8999999999999 137.60000000000002 1314.9999999999998 140.9 1314.9999999999998 140.9 C 1319.0999999999997 141.20000000000002 1323.1999999999998 141.5 1327.2999999999997 141.9 C 1314.3999999999996 158.3 1302.3999999999996 161.70000000000002 1302.3999999999996 161.70000000000002 L 1378.5999999999997 168.00000000000003 C 1378.5 168 1367.2 162.7 1357.2 144.3 z" stroke-linecap="round" />
</g>
		<g transform="matrix(1 0 0 1 768.8 37.35)"  >
<path style="stroke: none; stroke-width: 1; stroke-dasharray: none; stroke-linecap: butt; stroke-dashoffset: 0; stroke-linejoin: miter; stroke-miterlimit: 4; fill: rgb(54,154,126); fill-rule: nonzero; opacity: 1;" vector-effect="non-scaling-stroke"  transform=" translate(-1568.8, -137.35)" d="M 1593.7 159.5 C 1599.5 160.2 1605.3 160.9 1611.1000000000001 161.6 C 1611.1000000000001 161.6 1596.8000000000002 154 1586.9 127.6 C 1593.7 128.4 1600.4 129.2 1607.2 130.1 C 1607.2 130.1 1587.4 119.89999999999999 1581.5 80.39999999999999 C 1566.5 117.5 1544.9 122.79999999999998 1544.9 122.79999999999998 C 1551.7 123.59999999999998 1558.4 124.29999999999998 1565.2 125.09999999999998 C 1549.4 148.49999999999997 1533.7 152.59999999999997 1533.7 152.59999999999997 C 1539.5 153.29999999999995 1545.3 153.89999999999998 1551.1000000000001 154.59999999999997 C 1532.0000000000002 177.29999999999995 1514.8000000000002 181.59999999999997 1514.8000000000002 181.59999999999997 L 1618.8000000000002 193.79999999999995 C 1620.1000000000001 193.99999999999994 1621.5000000000002 194.09999999999997 1622.8000000000002 194.29999999999995 C 1622.7 194.2 1607 186 1593.7 159.5 z" stroke-linecap="round" />
</g>
		<g transform="matrix(1 0 0 1 0 7.04)"  >
<path style="stroke: none; stroke-width: 1; stroke-dasharray: none; stroke-linecap: butt; stroke-dashoffset: 0; stroke-linejoin: miter; stroke-miterlimit: 4; fill: rgb(187,1,11); fill-rule: nonzero; opacity: 1;" vector-effect="non-scaling-stroke"  transform=" translate(-800, -107.04)" d="M 1475.4 177 C 1475.4 177 1459 168.9 1444.6000000000001 141.7 C 1450.6000000000001 142.29999999999998 1456.7 142.89999999999998 1462.7 143.5 C 1462.7 143.5 1447.7 135.9 1436.9 108.7 C 1443.9 109.4 1450.9 110.10000000000001 1457.9 110.8 C 1457.9 110.8 1437.2 100.7 1430.2 59.8 C 1415.5 98.6 1393.3 104.5 1393.2 104.5 C 1400.2 105.1 1407.2 105.8 1414.2 106.5 C 1398.3 131.1 1382.2 135.7 1382.2 135.7 C 1388.2 136.2 1394.3 136.79999999999998 1400.3 137.39999999999998 C 1381 161.39999999999998 1363.3 166.2 1363.3 166.2 C 1352.6 165.29999999999998 1342 164.29999999999998 1331.3 163.5 C 1331.3 163.5 1313.2 155.1 1296.8999999999999 125.8 C 1303.4999999999998 126.3 1310.1 126.8 1316.6 127.39999999999999 C 1316.6 127.39999999999999 1300.1 119.49999999999999 1287.6 90.19999999999999 C 1295.1999999999998 90.79999999999998 1302.8999999999999 91.39999999999999 1310.5 91.99999999999999 C 1310.5 91.99999999999999 1287.7 81.49999999999999 1279 37.19999999999999 C 1264 79.79999999999998 1239.9 86.79999999999998 1239.9 86.89999999999999 C 1247.6000000000001 87.39999999999999 1255.2 87.99999999999999 1262.9 88.49999999999999 C 1246.2 115.69999999999999 1228.8000000000002 121.1 1228.8000000000002 121.1 C 1235.4 121.5 1242.0000000000002 122 1248.5000000000002 122.39999999999999 C 1228.1000000000001 149 1209.0000000000002 154.7 1209.0000000000002 154.7 C 1198.3000000000002 154 1187.6000000000001 153.39999999999998 1176.9000000000003 152.7 C 1176.9000000000003 152.7 1164.0000000000002 147.1 1152.1000000000004 126.69999999999999 C 1156.7000000000003 126.99999999999999 1161.4000000000003 127.19999999999999 1166.0000000000005 127.49999999999999 C 1166.0000000000005 127.49999999999999 1154.3000000000004 122.19999999999999 1145.1000000000004 101.69999999999999 C 1150.5000000000005 101.99999999999999 1155.9000000000003 102.29999999999998 1161.2000000000003 102.6 C 1161.2000000000003 102.6 1145.0000000000002 95.6 1138.3000000000002 64.5 C 1128.4 94.8 1111.6000000000001 100.1 1111.6000000000001 100.1 C 1117.0000000000002 100.39999999999999 1122.4 100.6 1127.7 100.89999999999999 C 1116.4 120.29999999999998 1104.2 124.29999999999998 1104.2 124.29999999999998 C 1108.8 124.49999999999999 1113.5 124.69999999999999 1118.1000000000001 124.99999999999999 C 1104.1000000000001 144 1090.7 148.29999999999998 1090.7 148.29999999999998 C 1037.2 145.89999999999998 983.7 144.1 930.2 142.99999999999997 C 930.2 142.99999999999997 908.9000000000001 134.59999999999997 888.1 102.29999999999997 C 895.7 102.39999999999996 903.2 102.49999999999997 910.8000000000001 102.69999999999997 C 910.8000000000001 102.69999999999997 891.4000000000001 94.79999999999997 874.9000000000001 62.199999999999974 C 883.7 62.299999999999976 892.5000000000001 62.39999999999998 901.3000000000001 62.59999999999997 C 901.3000000000001 62.59999999999997 874.4000000000001 52.199999999999974 861.2 2.099999999999973 C 847.1 51.99999999999997 820 61.799999999999976 820 61.799999999999976 C 828.8 61.799999999999976 837.6 61.89999999999998 846.4 61.89999999999998 C 829.3 94.19999999999997 809.8 101.69999999999997 809.6999999999999 101.69999999999997 C 817.3 101.69999999999997 824.8 101.69999999999997 832.4 101.79999999999997 C 811 133.79999999999995 789.6 141.69999999999996 789.5 141.69999999999996 C 743.3 141.79999999999995 697.2 142.29999999999995 651 143.39999999999995 C 651 143.39999999999995 630.3 136.29999999999995 609.1 106.19999999999995 C 616.3000000000001 105.99999999999994 623.6 105.79999999999994 630.8000000000001 105.59999999999995 C 630.8000000000001 105.59999999999995 611.9000000000001 98.89999999999995 594.8000000000001 68.29999999999995 C 603.2 67.99999999999996 611.6 67.79999999999995 620.1 67.59999999999995 C 620.1 67.59999999999995 594 58.799999999999955 579.3000000000001 11.399999999999949 C 567.8000000000001 59.699999999999946 542.4000000000001 70.19999999999995 542.4000000000001 70.19999999999995 C 550.8000000000001 69.89999999999995 559.2 69.49999999999994 567.7 69.19999999999995 C 552.7 100.79999999999995 534.3000000000001 108.79999999999995 534.3000000000001 108.79999999999995 C 541.5000000000001 108.49999999999996 548.8000000000001 108.19999999999996 556.0000000000001 107.89999999999995 C 536.8000000000001 139.29999999999995 516.7000000000002 147.79999999999995 516.6000000000001 147.79999999999995 C 503.90000000000015 148.39999999999995 491.20000000000016 148.99999999999994 478.5000000000001 149.59999999999997 C 478.5000000000001 149.59999999999997 461.3000000000001 144.19999999999996 443.3000000000001 119.99999999999997 C 449.2000000000001 119.69999999999997 455.2000000000001 119.39999999999998 461.10000000000014 118.99999999999997 C 461.10000000000014 118.99999999999997 445.5000000000001 113.89999999999998 430.8000000000001 89.19999999999997 C 437.7000000000001 88.79999999999997 444.60000000000014 88.39999999999998 451.5000000000001 88.09999999999998 C 451.5000000000001 88.09999999999998 429.9000000000001 81.39999999999998 416.9000000000001 42.79999999999998 C 408.5000000000001 82.69999999999999 387.9000000000001 91.79999999999998 387.9000000000001 91.79999999999998 C 394.80000000000007 91.39999999999998 401.7000000000001 90.89999999999998 408.6000000000001 90.49999999999999 C 396.9000000000001 116.79999999999998 382.00000000000006 123.69999999999999 382.00000000000006 123.69999999999999 C 387.90000000000003 123.29999999999998 393.90000000000003 122.89999999999999 399.80000000000007 122.6 C 384.70000000000005 148.79999999999998 368.30000000000007 156.1 368.30000000000007 156.1 C 328.20000000000005 158.79999999999998 288.20000000000005 161.9 248.10000000000008 165.29999999999998 C 248.10000000000008 165.29999999999998 226.00000000000009 159.2 201.9000000000001 129.29999999999998 C 209.4000000000001 128.6 217.00000000000009 127.89999999999998 224.50000000000009 127.19999999999999 C 224.50000000000009 127.19999999999999 204.3000000000001 121.39999999999999 184.50000000000009 90.69999999999999 C 193.3000000000001 89.89999999999999 202.10000000000008 89.1 210.8000000000001 88.29999999999998 C 210.8000000000001 88.29999999999998 182.9000000000001 80.89999999999998 164.5000000000001 32.399999999999984 C 156.2 83.3 130.3 96 130.3 96 C 139.10000000000002 95.1 147.9 94.2 156.60000000000002 93.3 C 143.00000000000003 127.3 124.30000000000003 136.8 124.30000000000003 136.8 C 131.8 136 139.40000000000003 135.20000000000002 146.90000000000003 134.5 C 129.00000000000003 168.6 108.50000000000003 178.7 108.50000000000003 178.8 C 70.50000000000003 182.9 32.60000000000002 186.4 -5.299999999999969 191.10000000000002 C -4.899999999999968 194.40000000000003 -4.499999999999969 198.70000000000002 -3.999999999999969 202.00000000000003 C -3.999999999999969 215.30000000000004 1604 215.30000000000004 1604 202.00000000000003 C 1604.4 198.70000000000002 1604.8 194.40000000000003 1605.3 191.10000000000002 C 1562 185.6 1518.8 181.6 1475.4 177 z" stroke-linecap="round" />
</g>
</g>
</g>
</svg>