<svg id="visual" viewBox="0 0 960 540" width="960" height="540" xmlns="http://www.w3.org/2000/svg" xmlns:xlink="http://www.w3.org/1999/xlink" version="1.1"><rect x="0" y="0" width="960" height="540" fill="#faf8f8"></rect><path d="M0 113L22.8 114.7C45.7 116.3 91.3 119.7 137 120.7C182.7 121.7 228.3 120.3 274 119.7C319.7 119 365.3 119 411.2 116.8C457 114.7 503 110.3 548.8 109.5C594.7 108.7 640.3 111.3 686 113.5C731.7 115.7 777.3 117.3 823 113.7C868.7 110 914.3 101 937.2 96.5L960 92L960 0L937.2 0C914.3 0 868.7 0 823 0C777.3 0 731.7 0 686 0C640.3 0 594.7 0 548.8 0C503 0 457 0 411.2 0C365.3 0 319.7 0 274 0C228.3 0 182.7 0 137 0C91.3 0 45.7 0 22.8 0L0 0Z" fill="#faf8f8"></path><path d="M0 94L22.8 97.2C45.7 100.3 91.3 106.7 137 110C182.7 113.3 228.3 113.7 274 108.7C319.7 103.7 365.3 93.3 411.2 93.2C457 93 503 103 548.8 107.7C594.7 112.3 640.3 111.7 686 108.5C731.7 105.3 777.3 99.7 823 100.3C868.7 101 914.3 108 937.2 111.5L960 115L960 0L937.2 0C914.3 0 868.7 0 823 0C777.3 0 731.7 0 686 0C640.3 0 594.7 0 548.8 0C503 0 457 0 411.2 0C365.3 0 319.7 0 274 0C228.3 0 182.7 0 137 0C91.3 0 45.7 0 22.8 0L0 0Z" fill="#faf6f5"></path><path d="M0 72L22.8 76.3C45.7 80.7 91.3 89.3 137 92.5C182.7 95.7 228.3 93.3 274 93.3C319.7 93.3 365.3 95.7 411.2 94.5C457 93.3 503 88.7 548.8 86.8C594.7 85 640.3 86 686 84.7C731.7 83.3 777.3 79.7 823 81.8C868.7 84 914.3 92 937.2 96L960 100L960 0L937.2 0C914.3 0 868.7 0 823 0C777.3 0 731.7 0 686 0C640.3 0 594.7 0 548.8 0C503 0 457 0 411.2 0C365.3 0 319.7 0 274 0C228.3 0 182.7 0 137 0C91.3 0 45.7 0 22.8 0L0 0Z" fill="#faf5f1"></path><path d="M0 60L22.8 59.5C45.7 59 91.3 58 137 58C182.7 58 228.3 59 274 60.7C319.7 62.3 365.3 64.7 411.2 67.5C457 70.3 503 73.7 548.8 75.2C594.7 76.7 640.3 76.3 686 74.7C731.7 73 777.3 70 823 71C868.7 72 914.3 77 937.2 79.5L960 82L960 0L937.2 0C914.3 0 868.7 0 823 0C777.3 0 731.7 0 686 0C640.3 0 594.7 0 548.8 0C503 0 457 0 411.2 0C365.3 0 319.7 0 274 0C228.3 0 182.7 0 137 0C91.3 0 45.7 0 22.8 0L0 0Z" fill="#f8f3ee"></path><path d="M0 58L22.8 58.2C45.7 58.3 91.3 58.7 137 56.7C182.7 54.7 228.3 50.3 274 49.2C319.7 48 365.3 50 411.2 51.7C457 53.3 503 54.7 548.8 57C594.7 59.3 640.3 62.7 686 63.2C731.7 63.7 777.3 61.3 823 58.2C868.7 55 914.3 51 937.2 49L960 47L960 0L937.2 0C914.3 0 868.7 0 823 0C777.3 0 731.7 0 686 0C640.3 0 594.7 0 548.8 0C503 0 457 0 411.2 0C365.3 0 319.7 0 274 0C228.3 0 182.7 0 137 0C91.3 0 45.7 0 22.8 0L0 0Z" fill="#f5f3ea"></path><path d="M0 45L22.8 45.5C45.7 46 91.3 47 137 46C182.7 45 228.3 42 274 40C319.7 38 365.3 37 411.2 38.3C457 39.7 503 43.3 548.8 46.5C594.7 49.7 640.3 52.3 686 52.5C731.7 52.7 777.3 50.3 823 49.7C868.7 49 914.3 50 937.2 50.5L960 51L960 0L937.2 0C914.3 0 868.7 0 823 0C777.3 0 731.7 0 686 0C640.3 0 594.7 0 548.8 0C503 0 457 0 411.2 0C365.3 0 319.7 0 274 0C228.3 0 182.7 0 137 0C91.3 0 45.7 0 22.8 0L0 0Z" fill="#f0f2e8"></path><path d="M0 29L22.8 29.7C45.7 30.3 91.3 31.7 137 30.7C182.7 29.7 228.3 26.3 274 26.8C319.7 27.3 365.3 31.7 411.2 33.2C457 34.7 503 33.3 548.8 32.2C594.7 31 640.3 30 686 29.5C731.7 29 777.3 29 823 30.2C868.7 31.3 914.3 33.7 937.2 34.8L960 36L960 0L937.2 0C914.3 0 868.7 0 823 0C777.3 0 731.7 0 686 0C640.3 0 594.7 0 548.8 0C503 0 457 0 411.2 0C365.3 0 319.7 0 274 0C228.3 0 182.7 0 137 0C91.3 0 45.7 0 22.8 0L0 0Z" fill="#eaf1e7"></path><path d="M0 24L22.8 22.7C45.7 21.3 91.3 18.7 137 17.3C182.7 16 228.3 16 274 15.8C319.7 15.7 365.3 15.3 411.2 16.3C457 17.3 503 19.7 548.8 20C594.7 20.3 640.3 18.7 686 17.7C731.7 16.7 777.3 16.3 823 15.3C868.7 14.3 914.3 12.7 937.2 11.8L960 11L960 0L937.2 0C914.3 0 868.7 0 823 0C777.3 0 731.7 0 686 0C640.3 0 594.7 0 548.8 0C503 0 457 0 411.2 0C365.3 0 319.7 0 274 0C228.3 0 182.7 0 137 0C91.3 0 45.7 0 22.8 0L0 0Z" fill="#e4f1e8"></path></svg>