<svg id="visual" viewBox="0 0 900 600" width="900" height="600" xmlns="http://www.w3.org/2000/svg" xmlns:xlink="http://www.w3.org/1999/xlink" version="1.1"><path d="M863 600L863 585.7C863 571.3 863 542.7 863 514.2C863 485.7 863 457.3 861.5 428.8C860 400.3 857 371.7 857 343C857 314.3 860 285.7 858.5 257C857 228.3 851 199.7 851 171.2C851 142.7 857 114.3 858.5 85.8C860 57.3 857 28.7 855.5 14.3L854 0L900 0L900 14.3C900 28.7 900 57.3 900 85.8C900 114.3 900 142.7 900 171.2C900 199.7 900 228.3 900 257C900 285.7 900 314.3 900 343C900 371.7 900 400.3 900 428.8C900 457.3 900 485.7 900 514.2C900 542.7 900 571.3 900 585.7L900 600Z" fill="#9fa4ac"></path><path d="M827 600L827 585.7C827 571.3 827 542.7 825.5 514.2C824 485.7 821 457.3 819.5 428.8C818 400.3 818 371.7 816.5 343C815 314.3 812 285.7 810.5 257C809 228.3 809 199.7 809 171.2C809 142.7 809 114.3 807.5 85.8C806 57.3 803 28.7 801.5 14.3L800 0L855 0L856.5 14.3C858 28.7 861 57.3 859.5 85.8C858 114.3 852 142.7 852 171.2C852 199.7 858 228.3 859.5 257C861 285.7 858 314.3 858 343C858 371.7 861 400.3 862.5 428.8C864 457.3 864 485.7 864 514.2C864 542.7 864 571.3 864 585.7L864 600Z" fill="#a5aab2"></path><path d="M674 600L686 585.7C698 571.3 722 542.7 720.5 514.2C719 485.7 692 457.3 680 428.8C668 400.3 671 371.7 675.5 343C680 314.3 686 285.7 693.5 257C701 228.3 710 199.7 720.5 171.2C731 142.7 743 114.3 737 85.8C731 57.3 707 28.7 695 14.3L683 0L801 0L802.5 14.3C804 28.7 807 57.3 808.5 85.8C810 114.3 810 142.7 810 171.2C810 199.7 810 228.3 811.5 257C813 285.7 816 314.3 817.5 343C819 371.7 819 400.3 820.5 428.8C822 457.3 825 485.7 826.5 514.2C828 542.7 828 571.3 828 585.7L828 600Z" fill="#acb1b8"></path><path d="M593 600L611 585.7C629 571.3 665 542.7 662 514.2C659 485.7 617 457.3 603.5 428.8C590 400.3 605 371.7 615.5 343C626 314.3 632 285.7 635 257C638 228.3 638 199.7 644 171.2C650 142.7 662 114.3 662 85.8C662 57.3 650 28.7 644 14.3L638 0L684 0L696 14.3C708 28.7 732 57.3 738 85.8C744 114.3 732 142.7 721.5 171.2C711 199.7 702 228.3 694.5 257C687 285.7 681 314.3 676.5 343C672 371.7 669 400.3 681 428.8C693 457.3 720 485.7 721.5 514.2C723 542.7 699 571.3 687 585.7L675 600Z" fill="#b2b7be"></path><path d="M539 600L554 585.7C569 571.3 599 542.7 597.5 514.2C596 485.7 563 457.3 554 428.8C545 400.3 560 371.7 570.5 343C581 314.3 587 285.7 585.5 257C584 228.3 575 199.7 579.5 171.2C584 142.7 602 114.3 603.5 85.8C605 57.3 590 28.7 582.5 14.3L575 0L639 0L645 14.3C651 28.7 663 57.3 663 85.8C663 114.3 651 142.7 645 171.2C639 199.7 639 228.3 636 257C633 285.7 627 314.3 616.5 343C606 371.7 591 400.3 604.5 428.8C618 457.3 660 485.7 663 514.2C666 542.7 630 571.3 612 585.7L594 600Z" fill="#b9bdc4"></path><path d="M503 600L519.5 585.7C536 571.3 569 542.7 569 514.2C569 485.7 536 457.3 527 428.8C518 400.3 533 371.7 540.5 343C548 314.3 548 285.7 543.5 257C539 228.3 530 199.7 534.5 171.2C539 142.7 557 114.3 558.5 85.8C560 57.3 545 28.7 537.5 14.3L530 0L576 0L583.5 14.3C591 28.7 606 57.3 604.5 85.8C603 114.3 585 142.7 580.5 171.2C576 199.7 585 228.3 586.5 257C588 285.7 582 314.3 571.5 343C561 371.7 546 400.3 555 428.8C564 457.3 597 485.7 598.5 514.2C600 542.7 570 571.3 555 585.7L540 600Z" fill="#c0c4ca"></path><path d="M467 600L482 585.7C497 571.3 527 542.7 528.5 514.2C530 485.7 503 457.3 497 428.8C491 400.3 506 371.7 510.5 343C515 314.3 509 285.7 504.5 257C500 228.3 497 199.7 501.5 171.2C506 142.7 518 114.3 519.5 85.8C521 57.3 512 28.7 507.5 14.3L503 0L531 0L538.5 14.3C546 28.7 561 57.3 559.5 85.8C558 114.3 540 142.7 535.5 171.2C531 199.7 540 228.3 544.5 257C549 285.7 549 314.3 541.5 343C534 371.7 519 400.3 528 428.8C537 457.3 570 485.7 570 514.2C570 542.7 537 571.3 520.5 585.7L504 600Z" fill="#c5c9ce"></path><path d="M440 600L450.5 585.7C461 571.3 482 542.7 482 514.2C482 485.7 461 457.3 455 428.8C449 400.3 458 371.7 462.5 343C467 314.3 467 285.7 461 257C455 228.3 443 199.7 449 171.2C455 142.7 479 114.3 486.5 85.8C494 57.3 485 28.7 480.5 14.3L476 0L504 0L508.5 14.3C513 28.7 522 57.3 520.5 85.8C519 114.3 507 142.7 502.5 171.2C498 199.7 501 228.3 505.5 257C510 285.7 516 314.3 511.5 343C507 371.7 492 400.3 498 428.8C504 457.3 531 485.7 529.5 514.2C528 542.7 498 571.3 483 585.7L468 600Z" fill="#c8ccd1"></path><path d="M251 600L257 585.7C263 571.3 275 542.7 282.5 514.2C290 485.7 293 457.3 306.5 428.8C320 400.3 344 371.7 353 343C362 314.3 356 285.7 336.5 257C317 228.3 284 199.7 287 171.2C290 142.7 329 114.3 348.5 85.8C368 57.3 368 28.7 368 14.3L368 0L477 0L481.5 14.3C486 28.7 495 57.3 487.5 85.8C480 114.3 456 142.7 450 171.2C444 199.7 456 228.3 462 257C468 285.7 468 314.3 463.5 343C459 371.7 450 400.3 456 428.8C462 457.3 483 485.7 483 514.2C483 542.7 462 571.3 451.5 585.7L441 600Z" fill="#cccfd4"></path><path d="M215 600L215 585.7C215 571.3 215 542.7 218 514.2C221 485.7 227 457.3 243.5 428.8C260 400.3 287 371.7 300.5 343C314 314.3 314 285.7 296 257C278 228.3 242 199.7 240.5 171.2C239 142.7 272 114.3 291.5 85.8C311 57.3 317 28.7 320 14.3L323 0L369 0L369 14.3C369 28.7 369 57.3 349.5 85.8C330 114.3 291 142.7 288 171.2C285 199.7 318 228.3 337.5 257C357 285.7 363 314.3 354 343C345 371.7 321 400.3 307.5 428.8C294 457.3 291 485.7 283.5 514.2C276 542.7 264 571.3 258 585.7L252 600Z" fill="#cfd2d7"></path><path d="M80 600L80 585.7C80 571.3 80 542.7 75.5 514.2C71 485.7 62 457.3 66.5 428.8C71 400.3 89 371.7 90.5 343C92 314.3 77 285.7 69.5 257C62 228.3 62 199.7 65 171.2C68 142.7 74 114.3 74 85.8C74 57.3 68 28.7 65 14.3L62 0L324 0L321 14.3C318 28.7 312 57.3 292.5 85.8C273 114.3 240 142.7 241.5 171.2C243 199.7 279 228.3 297 257C315 285.7 315 314.3 301.5 343C288 371.7 261 400.3 244.5 428.8C228 457.3 222 485.7 219 514.2C216 542.7 216 571.3 216 585.7L216 600Z" fill="#d3d5d9"></path><path d="M0 600L0 585.7C0 571.3 0 542.7 0 514.2C0 485.7 0 457.3 0 428.8C0 400.3 0 371.7 0 343C0 314.3 0 285.7 0 257C0 228.3 0 199.7 0 171.2C0 142.7 0 114.3 0 85.8C0 57.3 0 28.7 0 14.3L0 0L63 0L66 14.3C69 28.7 75 57.3 75 85.8C75 114.3 69 142.7 66 171.2C63 199.7 63 228.3 70.5 257C78 285.7 93 314.3 91.5 343C90 371.7 72 400.3 67.5 428.8C63 457.3 72 485.7 76.5 514.2C81 542.7 81 571.3 81 585.7L81 600Z" fill="#d6d8dc"></path></svg>