<svg xmlns="http://www.w3.org/2000/svg" xmlns:xlink="http://www.w3.org/1999/xlink" id="visual" version="1.1" viewBox="0 0 900 40"><rect x="0" y="0" width="900" height="10" fill="#faf8f8"/><path d="M0 40L21.5 40C43 40 86 40 128.8 39C171.7 38 214.3 36 257.2 33.7C300 31.3 343 28.7 385.8 28.7C428.7 28.7 471.3 31.3 514.2 31.7C557 32 600 30 642.8 30.7C685.7 31.3 728.3 34.7 771.2 35C814 35.3 857 32.7 878.5 31.3L900 30L900 0L878.5 0C857 0 814 0 771.2 0C728.3 0 685.7 0 642.8 0C600 0 557 0 514.2 0C471.3 0 428.7 0 385.8 0C343 0 300 0 257.2 0C214.3 0 171.7 0 128.8 0C86 0 43 0 21.5 0L0 0Z" fill="#fa7268"/><path d="M0 27L21.5 26.7C43 26.3 86 25.7 128.8 25.3C171.7 25 214.3 25 257.2 25.8C300 26.7 343 28.3 385.8 27.3C428.7 26.3 471.3 22.7 514.2 21C557 19.3 600 19.7 642.8 20.3C685.7 21 728.3 22 771.2 23.8C814 25.7 857 28.3 878.5 29.7L900 31L900 0L878.5 0C857 0 814 0 771.2 0C728.3 0 685.7 0 642.8 0C600 0 557 0 514.2 0C471.3 0 428.7 0 385.8 0C343 0 300 0 257.2 0C214.3 0 171.7 0 128.8 0C86 0 43 0 21.5 0L0 0Z" fill="#eb5c51"/><path d="M0 18L21.5 19C43 20 86 22 128.8 21.7C171.7 21.3 214.3 18.7 257.2 17.7C300 16.7 343 17.3 385.8 18.2C428.7 19 471.3 20 514.2 20C557 20 600 19 642.8 19.8C685.7 20.7 728.3 23.3 771.2 23C814 22.7 857 19.3 878.5 17.7L900 16L900 0L878.5 0C857 0 814 0 771.2 0C728.3 0 685.7 0 642.8 0C600 0 557 0 514.2 0C471.3 0 428.7 0 385.8 0C343 0 300 0 257.2 0C214.3 0 171.7 0 128.8 0C86 0 43 0 21.5 0L0 0Z" fill="#dc463b"/><path d="M0 11L21.5 11.3C43 11.7 86 12.3 128.8 13.5C171.7 14.7 214.3 16.3 257.2 15.8C300 15.3 343 12.7 385.8 11.3C428.7 10 471.3 10 514.2 11C557 12 600 14 642.8 13.7C685.7 13.3 728.3 10.7 771.2 9.8C814 9 857 10 878.5 10.5L900 11L900 0L878.5 0C857 0 814 0 771.2 0C728.3 0 685.7 0 642.8 0C600 0 557 0 514.2 0C471.3 0 428.7 0 385.8 0C343 0 300 0 257.2 0C214.3 0 171.7 0 128.8 0C86 0 43 0 21.5 0L0 0Z" fill="#cc2c24"/><path d="M0 6L21.5 6.8C43 7.7 86 9.3 128.8 9C171.7 8.7 214.3 6.3 257.2 5.8C300 5.3 343 6.7 385.8 7.5C428.7 8.3 471.3 8.7 514.2 8.2C557 7.7 600 6.3 642.8 6.2C685.7 6 728.3 7 771.2 7.8C814 8.7 857 9.3 878.5 9.7L900 10L900 0L878.5 0C857 0 814 0 771.2 0C728.3 0 685.7 0 642.8 0C600 0 557 0 514.2 0C471.3 0 428.7 0 385.8 0C343 0 300 0 257.2 0C214.3 0 171.7 0 128.8 0C86 0 43 0 21.5 0L0 0Z" fill="#bb010b"/></svg>