<svg version="1.1" xmlns:xlink="http://www.w3.org/1999/xlink" xmlns="http://www.w3.org/2000/svg" viewBox="0 0 960 23.003194888178914" id="visual" style="max-height: 500px" width="960" height="23.003194888178914"><rect fill="#faf8f8" height="300" width="960" y="0" x="0"/><path stroke-linejoin="miter" stroke-linecap="round" fill="#76ae8b" d="M0 18L22.8 18.3C45.7 18.7 91.3 19.3 137 19.7C182.7 20 228.3 20 274 19.7C319.7 19.3 365.3 18.7 411.2 16.8C457 15 503 12 548.8 10.2C594.7 8.3 640.3 7.7 686 8.7C731.7 9.7 777.3 12.3 823 13C868.7 13.7 914.3 12.3 937.2 11.7L960 11L960 0L937.2 0C914.3 0 868.7 0 823 0C777.3 0 731.7 0 686 0C640.3 0 594.7 0 548.8 0C503 0 457 0 411.2 0C365.3 0 319.7 0 274 0C228.3 0 182.7 0 137 0C91.3 0 45.7 0 22.8 0L0 0Z"/></svg>